<mxfile host="app.diagrams.net" modified="2023-11-11T10:08:41.663Z" agent="Mozilla/5.0 (Macintosh; Intel Mac OS X 10_15_7) AppleWebKit/537.36 (KHTML, like Gecko) Chrome/119.0.0.0 Safari/537.36" etag="l-jurURV1nE-itEAZSCx" version="22.1.0" type="github">
  <diagram name="第 1 页" id="Fj6qFE5AkYDORj3NqAtb">
    <mxGraphModel dx="1147" dy="587" grid="1" gridSize="10" guides="1" tooltips="1" connect="1" arrows="1" fold="1" page="1" pageScale="1" pageWidth="827" pageHeight="1169" math="0" shadow="0">
      <root>
        <mxCell id="0" />
        <mxCell id="1" parent="0" />
        <mxCell id="68L4gRCgQuYn80nTIjj4-1" value="" style="edgeStyle=orthogonalEdgeStyle;rounded=0;orthogonalLoop=1;jettySize=auto;html=1;" edge="1" parent="1" source="68L4gRCgQuYn80nTIjj4-2" target="68L4gRCgQuYn80nTIjj4-6">
          <mxGeometry relative="1" as="geometry" />
        </mxCell>
        <mxCell id="68L4gRCgQuYn80nTIjj4-2" value="&lt;b&gt;拿到channel&lt;/b&gt;" style="rounded=0;whiteSpace=wrap;html=1;" vertex="1" parent="1">
          <mxGeometry x="350" y="400" width="230" height="60" as="geometry" />
        </mxCell>
        <mxCell id="68L4gRCgQuYn80nTIjj4-3" value="" style="edgeStyle=orthogonalEdgeStyle;rounded=0;orthogonalLoop=1;jettySize=auto;html=1;" edge="1" parent="1" source="68L4gRCgQuYn80nTIjj4-4" target="68L4gRCgQuYn80nTIjj4-2">
          <mxGeometry relative="1" as="geometry" />
        </mxCell>
        <mxCell id="68L4gRCgQuYn80nTIjj4-4" value="好友通过的mq" style="rounded=0;whiteSpace=wrap;html=1;" vertex="1" parent="1">
          <mxGeometry x="350" y="270" width="230" height="60" as="geometry" />
        </mxCell>
        <mxCell id="68L4gRCgQuYn80nTIjj4-5" value="" style="edgeStyle=orthogonalEdgeStyle;rounded=0;orthogonalLoop=1;jettySize=auto;html=1;" edge="1" parent="1" source="68L4gRCgQuYn80nTIjj4-6" target="68L4gRCgQuYn80nTIjj4-7">
          <mxGeometry relative="1" as="geometry" />
        </mxCell>
        <mxCell id="68L4gRCgQuYn80nTIjj4-6" value="丝绸之路的接口, 获取silkTaskServiceApi.getSilkChannelCode" style="rounded=0;whiteSpace=wrap;html=1;" vertex="1" parent="1">
          <mxGeometry x="350" y="520" width="230" height="60" as="geometry" />
        </mxCell>
        <mxCell id="68L4gRCgQuYn80nTIjj4-9" value="" style="edgeStyle=orthogonalEdgeStyle;rounded=0;orthogonalLoop=1;jettySize=auto;html=1;" edge="1" parent="1" source="68L4gRCgQuYn80nTIjj4-7" target="68L4gRCgQuYn80nTIjj4-8">
          <mxGeometry relative="1" as="geometry" />
        </mxCell>
        <mxCell id="68L4gRCgQuYn80nTIjj4-7" value="&amp;nbsp;SilkChannelCodeBO中的businessId就是班级id" style="rounded=0;whiteSpace=wrap;html=1;" vertex="1" parent="1">
          <mxGeometry x="350" y="660" width="230" height="60" as="geometry" />
        </mxCell>
        <mxCell id="68L4gRCgQuYn80nTIjj4-11" value="" style="edgeStyle=orthogonalEdgeStyle;rounded=0;orthogonalLoop=1;jettySize=auto;html=1;" edge="1" parent="1" source="68L4gRCgQuYn80nTIjj4-8" target="68L4gRCgQuYn80nTIjj4-10">
          <mxGeometry relative="1" as="geometry" />
        </mxCell>
        <mxCell id="68L4gRCgQuYn80nTIjj4-8" value="根据wxId获取casId" style="rounded=0;whiteSpace=wrap;html=1;" vertex="1" parent="1">
          <mxGeometry x="350" y="800" width="230" height="60" as="geometry" />
        </mxCell>
        <mxCell id="68L4gRCgQuYn80nTIjj4-13" value="" style="edgeStyle=orthogonalEdgeStyle;rounded=0;orthogonalLoop=1;jettySize=auto;html=1;" edge="1" parent="1" source="68L4gRCgQuYn80nTIjj4-10" target="68L4gRCgQuYn80nTIjj4-12">
          <mxGeometry relative="1" as="geometry" />
        </mxCell>
        <mxCell id="68L4gRCgQuYn80nTIjj4-10" value="根据casId查询所有未关闭的非默认方案" style="rounded=0;whiteSpace=wrap;html=1;" vertex="1" parent="1">
          <mxGeometry x="350" y="940" width="230" height="60" as="geometry" />
        </mxCell>
        <mxCell id="68L4gRCgQuYn80nTIjj4-15" value="" style="edgeStyle=orthogonalEdgeStyle;rounded=0;orthogonalLoop=1;jettySize=auto;html=1;" edge="1" parent="1" source="68L4gRCgQuYn80nTIjj4-12" target="68L4gRCgQuYn80nTIjj4-14">
          <mxGeometry relative="1" as="geometry" />
        </mxCell>
        <mxCell id="68L4gRCgQuYn80nTIjj4-17" value="" style="edgeStyle=orthogonalEdgeStyle;rounded=0;orthogonalLoop=1;jettySize=auto;html=1;" edge="1" parent="1" source="68L4gRCgQuYn80nTIjj4-12" target="68L4gRCgQuYn80nTIjj4-16">
          <mxGeometry relative="1" as="geometry" />
        </mxCell>
        <mxCell id="68L4gRCgQuYn80nTIjj4-25" value="否" style="edgeLabel;html=1;align=center;verticalAlign=middle;resizable=0;points=[];" vertex="1" connectable="0" parent="68L4gRCgQuYn80nTIjj4-17">
          <mxGeometry x="-0.125" y="-1" relative="1" as="geometry">
            <mxPoint as="offset" />
          </mxGeometry>
        </mxCell>
        <mxCell id="68L4gRCgQuYn80nTIjj4-12" value="根据班级id或者渠道对方案进行筛选" style="rounded=0;whiteSpace=wrap;html=1;" vertex="1" parent="1">
          <mxGeometry x="350" y="1080" width="230" height="60" as="geometry" />
        </mxCell>
        <mxCell id="68L4gRCgQuYn80nTIjj4-14" value="结果是多个,随机一个" style="rounded=0;whiteSpace=wrap;html=1;" vertex="1" parent="1">
          <mxGeometry x="350" y="1220" width="230" height="60" as="geometry" />
        </mxCell>
        <mxCell id="68L4gRCgQuYn80nTIjj4-19" value="" style="edgeStyle=orthogonalEdgeStyle;rounded=0;orthogonalLoop=1;jettySize=auto;html=1;" edge="1" parent="1" source="68L4gRCgQuYn80nTIjj4-16" target="68L4gRCgQuYn80nTIjj4-18">
          <mxGeometry relative="1" as="geometry" />
        </mxCell>
        <mxCell id="68L4gRCgQuYn80nTIjj4-16" value="没有非默认方案满足" style="rounded=0;whiteSpace=wrap;html=1;" vertex="1" parent="1">
          <mxGeometry x="660" y="1080" width="230" height="60" as="geometry" />
        </mxCell>
        <mxCell id="68L4gRCgQuYn80nTIjj4-21" value="" style="edgeStyle=orthogonalEdgeStyle;rounded=0;orthogonalLoop=1;jettySize=auto;html=1;" edge="1" parent="1" source="68L4gRCgQuYn80nTIjj4-18" target="68L4gRCgQuYn80nTIjj4-20">
          <mxGeometry relative="1" as="geometry" />
        </mxCell>
        <mxCell id="68L4gRCgQuYn80nTIjj4-23" value="" style="edgeStyle=orthogonalEdgeStyle;rounded=0;orthogonalLoop=1;jettySize=auto;html=1;" edge="1" parent="1" source="68L4gRCgQuYn80nTIjj4-18" target="68L4gRCgQuYn80nTIjj4-22">
          <mxGeometry relative="1" as="geometry" />
        </mxCell>
        <mxCell id="68L4gRCgQuYn80nTIjj4-18" value="查看开启的默认方案" style="rounded=0;whiteSpace=wrap;html=1;" vertex="1" parent="1">
          <mxGeometry x="660" y="1220" width="230" height="60" as="geometry" />
        </mxCell>
        <mxCell id="68L4gRCgQuYn80nTIjj4-20" value="没有的话, 不处理" style="rounded=0;whiteSpace=wrap;html=1;" vertex="1" parent="1">
          <mxGeometry x="970" y="1220" width="230" height="60" as="geometry" />
        </mxCell>
        <mxCell id="68L4gRCgQuYn80nTIjj4-22" value="选择机器人在的那个 方案" style="rounded=0;whiteSpace=wrap;html=1;" vertex="1" parent="1">
          <mxGeometry x="660" y="1360" width="230" height="60" as="geometry" />
        </mxCell>
      </root>
    </mxGraphModel>
  </diagram>
</mxfile>
